<svg xmlns="http://www.w3.org/2000/svg" version="1.1" xmlns:xlink="http://www.w3.org/1999/xlink" xmlns:svgjs="http://svgjs.dev/svgjs" width="1000" height="623" viewBox="0 0 1000 623"><g transform="matrix(1,0,0,1,-0.6060606060606233,0.2522267206477409)"><svg viewBox="0 0 396 247" data-background-color="#ffffff" preserveAspectRatio="xMidYMid meet" height="623" width="1000" xmlns="http://www.w3.org/2000/svg" xmlns:xlink="http://www.w3.org/1999/xlink"><g id="tight-bounds" transform="matrix(1,0,0,1,0.2400000000000091,-0.09999999999999432)"><svg viewBox="0 0 395.52 247.2" height="247.2" width="395.52"><g><svg></svg></g><g><svg viewBox="0 0 395.52 247.2" height="247.2" width="395.52"><g transform="matrix(1,0,0,1,75.54432,50.13649956112853)"><svg viewBox="0 0 244.43135999999998 146.92700087774293" height="146.92700087774293" width="244.43135999999998"><g><svg viewBox="0 0 244.43135999999998 146.92700087774293" height="146.92700087774293" width="244.43135999999998"><g><svg viewBox="0 0 244.43135999999998 146.92700087774293" height="146.92700087774293" width="244.43135999999998"><g><svg viewBox="0 0 244.43135999999998 146.92700087774293" height="146.92700087774293" width="244.43135999999998"><g id="textblocktransform"><svg viewBox="0 0 244.43135999999998 146.92700087774293" height="146.92700087774293" width="244.43135999999998" id="textblock"><g><svg viewBox="0 0 244.43135999999998 146.92700087774293" height="146.92700087774293" width="244.43135999999998"><g transform="matrix(1,0,0,1,0,0)"><svg width="244.43135999999998" viewBox="1.350000023841858 -38.349998474121094 63.80000305175781 38.349998474121094" height="146.92700087774293" data-palette-color="#a40e06"><path d="M30.3 0L26.2-11.05 10.4-11.05 6.35 0 1.35 0 15.6-38.35 21-38.35 35.3 0 30.3 0ZM12.05-15.4L24.55-15.4 18.3-32.3 12.05-15.4ZM46.8-4.2L65.15-4.2 65.15 0 41.95 0 41.95-37.9 64.9-37.9 64.9-33.7 46.8-33.7 46.8-21.15 62.4-21.15 62.4-16.95 46.8-16.95 46.8-4.2Z" opacity="1" transform="matrix(1,0,0,1,0,0)" fill="#a40e06" class="wordmark-text-0" data-fill-palette-color="primary" id="text-0"></path></svg></g></svg></g></svg></g></svg></g></svg></g></svg></g></svg></g><g><path d="M245.816 0c68.262 0 123.6 55.338 123.6 123.6 0 68.262-55.338 123.6-123.6 123.6-32.362 0-61.82-12.438-83.853-32.794h10.108c20.122 16.361 45.788 26.169 73.745 26.169 64.603 0 116.975-52.371 116.975-116.975 0-64.603-52.371-116.975-116.975-116.975-27.956 0-53.622 9.807-73.745 26.169h-10.108c22.033-20.356 51.49-32.794 83.853-32.794z" fill="#a1110d" stroke="transparent" data-fill-palette-color="tertiary"></path></g></svg></g><defs></defs></svg><rect width="395.52" height="247.2" fill="none" stroke="none" visibility="hidden"></rect></g></svg></g></svg>